<svg xmlns="http://www.w3.org/2000/svg" width="172" height="172" version="1.2"><path fill-rule="evenodd" d="M108 65.3v39.9q0 .7-.1 1.3 0 .7-.1 1.4-.2.7-.3 1.3-.2.7-.4 1.3-.2.8-.6 1.5-.3.7-.7 1.4-.5.7-1 1.3t-1.1 1.2l-1.2 1-1.2.8-1.4.8q-.7.4-1.4.7l-.4.2q-.3.1-.5.2-.2 0-.5.1l-.4.2c-3 1.1-6.9 1.6-11.6 1.6-4.9 0-8.7-.6-11.7-1.6q-.9-.3-1.9-.7-.9-.4-1.8-.9-.9-.6-1.7-1.2t-1.6-1.3q-.6-.5-1.1-1.1t-1-1.3q-.4-.7-.7-1.4t-.6-1.5q-.8-2.6-.9-5.3v-6.4q0-1.2.1-2.4.2-1.2.5-2.4.4-1.2.9-2.3t1.1-2.2q.6-1 1.4-1.9.9-.9 1.8-1.7 1-.8 2-1.3 1.1-.6 2.2-1c1.6-.6 3.5-1.1 5.5-1.9 2.1-.7 4.1-1.3 6.1-2.1 1.9-.7 3.5-1.3 5.1-1.8 1.4-.6 2.3-.8 2.7-1q.7-.3 1.3-.8.9-.6 1.7-1.3.3-.3.4-.5.2-.3.4-.5.2-.3.3-.6.2-.3.3-.5.2-.4.3-.7l.2-.8q.1-.3.1-.7v-4q-.1-.4-.1-.7-.1-.4-.2-.7t-.3-.7q-.1-.3-.3-.7t-.5-.7q-.2-.3-.5-.6-.2-.3-.6-.6-.3-.3-.8-.6-.4-.3-.8-.5-.5-.3-.9-.5-.5-.2-1-.3-.7-.3-1.4-.4-.7-.2-1.4-.3t-1.4-.1h-1.4c-4.5 0-7.5.9-9.2 2.8q-.5.6-.9 1.3t-.7 1.4q-.3.8-.5 1.5-.2.8-.3 1.6v.4l-.3.3q-.1.1-.2.1-.2.1-.4.1h-9.5c-.5 0-.9-.4-.9-1v-2.3q0-.8.1-1.7 0-.8.2-1.6t.4-1.5q.2-.8.6-1.6.3-.8.7-1.5l1-1.4q.5-.6 1.1-1.2t1.3-1.1q.8-.6 1.7-1.2.8-.5 1.7-.9.9-.5 1.9-.8.9-.4 1.9-.6 1.3-.3 2.6-.5t2.6-.3q1.3-.2 2.6-.2 1.3-.1 2.6-.1c7.9 0 13.8 1.5 17.5 4.7 3.6 3.1 5.5 7 5.5 11.6m-21.7 46.2q.7 0 1.3-.1.7-.1 1.3-.2t1.3-.2q.5-.1 1.1-.3.5-.2 1.1-.5.5-.2 1-.6.4-.3.9-.7c1.6-1.8 2.4-4.2 2.4-7.5l-.1-16.6q0 .3-.1.6-.2.2-.3.5-.2.3-.4.5-.3.2-.5.4-.3.1-.5.3-.2.1-.5.3-.3.1-.5.2l-.6.2-.8.3q-1.65.6-3.6 1.2l-1 .4q-.6.2-1.1.4-.6.2-1.1.4l-1.2.4c-1.6.5-3.2 1-4.5 1.6q-.5.2-.9.4l-.8.4q-.3.2-.7.5t-.8.5q-.3.3-.6.7l-.6.6q-.3.4-.5.8-.3.3-.5.7l-.4 1q-.2.5-.4 1.1-.1.5-.1 1.1-.1.5-.1 1.1c0 3.3.9 6 2.5 7.6s4.6 2.5 9 2.5z" style="fill:#2bdefd"/></svg>